<?xml version="1.0" encoding="UTF-8"?>
<svg width="484px" height="289px" viewBox="0 0 484 289" version="1.1" xmlns="http://www.w3.org/2000/svg" xmlns:xlink="http://www.w3.org/1999/xlink">
    <title>bike</title>
    <defs>
        <filter id="filter-1">
            <feColorMatrix in="SourceGraphic" type="matrix" values="0 0 0 0 0.921569 0 0 0 0 0.921569 0 0 0 0 0.921569 0 0 0 1.000000 0"></feColorMatrix>
        </filter>
    </defs>
    <g id="Page-1" stroke="none" stroke-width="1" fill="none" fill-rule="evenodd">
        <g id="bike" transform="translate(-14.000000, -43.000000)" filter="url(#filter-1)">
            <g transform="translate(15.000000, 44.000000)">
                <path d="M393.043,109.012 C383.23,109.012 373.402,110.709 363.835,114.056 L361.839,114.754 L329.692,56.348 L329.692,30.983 L368.209,30.983 C375.611,30.983 381.633,24.961 381.633,17.558 C381.633,10.155 375.612,4.133 368.209,4.133 L317.17,4.133 C309.769,4.133 303.746,10.155 303.746,17.558 C303.746,18.642 303.894,19.769 304.186,20.907 L304.264,21.213 L304.264,46.903 L187.152,46.903 L177.508,25.427 L205.405,25.427 C212.414,25.427 218.115,19.724 218.115,12.713 C218.115,5.703 212.414,0 205.405,0 L110.322,0 C103.311,0 97.608,5.703 97.608,12.713 C97.608,19.724 103.311,25.427 110.322,25.427 L149.644,25.427 L158.134,44.675 L119.985,114.771 L117.978,114.068 C108.421,110.717 98.598,109.019 88.78,109.019 C39.827,109.019 0,148.848 0,197.803 C0,246.756 39.827,286.582 88.78,286.582 C132.216,286.582 168.986,255.469 176.214,212.602 L176.565,210.516 L214.352,210.516 L215.076,211.204 C220.852,216.684 228.411,219.704 236.36,219.704 C253.416,219.704 267.292,205.828 267.292,188.772 C267.292,185.826 266.87,182.891 266.037,180.053 L265.744,179.055 L316.977,85.976 L339.573,127.03 L337.921,128.342 C316.531,145.341 304.264,170.658 304.264,197.804 C304.264,246.756 344.09,286.582 393.043,286.582 C441.996,286.582 481.823,246.756 481.823,197.804 C481.823,148.844 441.996,109.012 393.043,109.012 Z M129.84,149.553 L132.189,151.772 C140.891,159.985 147.07,170.419 150.056,181.949 L150.867,185.076 L110.289,185.076 L129.84,149.553 Z M150.056,213.645 C142.802,241.61 117.605,261.141 88.782,261.141 C53.848,261.141 25.428,232.721 25.428,197.787 C25.428,162.853 53.849,134.434 88.782,134.434 C93.883,134.434 99.155,135.12 104.454,136.473 L107.582,137.273 L77.652,191.676 C77.576,191.875 77.494,192.072 77.393,192.266 C77.185,192.696 77.03,193.069 76.905,193.43 C76.73,193.893 76.611,194.268 76.523,194.627 C76.424,195 76.354,195.357 76.284,195.82 C76.199,196.324 76.158,196.744 76.153,197.113 L76.148,197.245 C76.136,197.414 76.114,197.584 76.088,197.755 L76.081,197.811 L76.086,197.852 C76.106,197.996 76.122,198.137 76.131,198.278 C76.159,198.782 76.212,199.259 76.276,199.731 C76.33,200.075 76.392,200.46 76.49,200.845 C76.584,201.223 76.698,201.596 76.844,201.998 C76.993,202.448 77.137,202.809 77.308,203.172 C77.464,203.52 77.646,203.832 77.857,204.195 L77.908,204.284 C78.123,204.661 78.315,204.958 78.519,205.228 C78.748,205.541 78.998,205.847 79.333,206.222 C79.596,206.507 79.867,206.808 80.167,207.082 C80.477,207.362 80.805,207.623 81.137,207.885 C81.456,208.124 81.812,208.388 82.166,208.591 L82.313,208.683 C82.414,208.75 82.514,208.826 82.615,208.902 L82.707,208.969 C82.909,209.033 83.107,209.117 83.305,209.224 C83.646,209.39 84.046,209.558 84.41,209.683 C84.871,209.853 85.262,209.976 85.668,210.081 C85.985,210.165 86.315,210.231 86.787,210.308 C87.286,210.392 87.749,210.439 88.214,210.456 C88.35,210.448 88.56,210.477 88.779,210.506 L150.866,210.515 L150.056,213.645 Z M212.542,169.037 C209.204,173.06 206.931,177.902 205.968,183.035 L205.585,185.074 L176.565,185.074 L176.214,182.989 C172.577,161.421 161.103,142.008 143.902,128.328 L142.251,127.015 L171.434,73.992 L213.536,167.84 L212.542,169.037 Z M247.331,159.774 L245.391,159.182 C243.145,158.496 240.797,158.072 238.412,157.914 L236.91,157.816 L198.568,72.319 L295.476,72.319 L247.331,159.774 Z M393.043,261.141 C358.11,261.141 329.69,232.721 329.69,197.787 C329.69,180.243 336.772,163.9 349.631,151.769 L351.981,149.552 L381.908,203.919 C384.135,207.98 388.407,210.499 393.058,210.499 C395.228,210.499 397.287,209.97 399.18,208.924 C402.157,207.289 404.313,204.593 405.256,201.331 C406.2,198.067 405.819,194.626 404.179,191.643 L374.254,137.271 L377.38,136.471 C382.671,135.117 387.944,134.431 393.058,134.431 C427.992,134.431 456.412,162.851 456.412,197.784 C456.396,232.721 427.97,261.141 393.043,261.141 Z" id="Shape" stroke="#FFFFFF" fill="#000000" fill-rule="nonzero"></path>
            </g>
        </g>
    </g>
</svg>